<?xml version="1.0" encoding="UTF-8" standalone="no"?>
<!DOCTYPE svg PUBLIC "-//W3C//DTD SVG 1.1//EN" "http://www.w3.org/Graphics/SVG/1.1/DTD/svg11.dtd">
<svg width="100%" height="100%" viewBox="0 0 28 28" version="1.1" xmlns="http://www.w3.org/2000/svg" xmlns:xlink="http://www.w3.org/1999/xlink" xml:space="preserve" xmlns:serif="http://www.serif.com/" style="fill-rule:evenodd;clip-rule:evenodd;stroke-linejoin:round;stroke-miterlimit:2;">
    <path d="M13.319,19.361L13.434,19.246L13.434,11.227L11.208,13.631C11.108,13.747 10.964,13.813 10.813,13.813C10.662,13.813 10.518,13.747 10.42,13.633L10.418,13.631C10.185,13.381 10.185,12.993 10.416,12.745L13.604,9.303C13.708,9.189 13.855,9.125 14.009,9.125C14.164,9.125 14.311,9.189 14.415,9.303L17.599,12.743C17.707,12.87 17.767,13.031 17.768,13.198L17.768,13.198C17.769,13.364 17.709,13.526 17.599,13.65L17.599,13.651C17.5,13.766 17.356,13.832 17.205,13.832C17.054,13.832 16.91,13.766 16.812,13.652L14.584,11.247L14.584,19.246L14.699,19.361C14.699,19.361 14.584,19.246 14.584,19.246C14.584,19.561 14.324,19.821 14.009,19.821C13.694,19.821 13.434,19.561 13.434,19.246L13.319,19.361Z" style="fill:white;fill-rule:nonzero;"/>
    <path d="M10.234,12.575C9.914,12.917 9.913,13.455 10.232,13.798C10.378,13.966 10.59,14.063 10.813,14.063C11.036,14.063 11.248,13.966 11.393,13.798C11.393,13.798 13.184,11.865 13.184,11.865C13.184,11.865 13.184,19.246 13.184,19.246L13.309,19.371C13.309,19.371 13.184,19.246 13.184,19.246C13.184,19.699 13.556,20.071 14.009,20.071C14.462,20.071 14.834,19.699 14.834,19.246L14.709,19.371C14.709,19.371 14.834,19.246 14.834,19.246L14.834,11.885C14.834,11.885 16.625,13.817 16.625,13.817C16.77,13.985 16.982,14.082 17.205,14.082C17.429,14.082 17.642,13.985 17.787,13.815C17.938,13.644 18.02,13.424 18.018,13.196C18.017,12.97 17.935,12.751 17.788,12.579L14.599,9.133C14.447,8.969 14.233,8.875 14.009,8.875C13.786,8.875 13.572,8.969 13.42,9.133L10.234,12.575ZM10.416,12.745L13.604,9.303C13.708,9.189 13.855,9.125 14.009,9.125C14.164,9.125 14.311,9.189 14.415,9.303L17.599,12.743C17.707,12.87 17.767,13.031 17.768,13.198L17.768,13.198C17.769,13.364 17.709,13.526 17.599,13.65L17.599,13.651C17.5,13.766 17.356,13.832 17.205,13.832C17.054,13.832 16.91,13.766 16.812,13.652L14.584,11.247L14.584,19.246L14.709,19.371C14.709,19.371 14.584,19.246 14.584,19.246C14.584,19.561 14.324,19.821 14.009,19.821C13.694,19.821 13.434,19.561 13.434,19.246L13.309,19.371C13.309,19.371 13.434,19.246 13.434,19.246L13.434,11.227L11.208,13.631C11.108,13.747 10.964,13.813 10.813,13.813C10.662,13.813 10.518,13.747 10.42,13.633L10.418,13.631C10.185,13.381 10.185,12.993 10.416,12.745Z" style="fill:white;fill-opacity:0.53;"/>
</svg>
