<svg xmlns="http://www.w3.org/2000/svg" width="201.932" height="54.976" viewBox="0 0 201.932 54.976">
  <g id="mpdl.mpg-logo" transform="translate(0 0.005)">
    <g id="Gruppe_802" data-name="Gruppe 802" transform="translate(0 -0.005)">
      <path id="Pfad_6632" data-name="Pfad 6632" d="M0,27.482A27.489,27.489,0,1,0,27.491,0,27.521,27.521,0,0,0,0,27.482Zm.77,0A26.719,26.719,0,1,1,27.492,54.2,26.749,26.749,0,0,1,.77,27.482" transform="translate(0 0.005)" fill="#fff"/>
      <path id="Pfad_6633" data-name="Pfad 6633" d="M38.806,47.5c-.668,2.313-.987,3.507.056,5.892.01.09.111.384,0,.425a15.972,15.972,0,0,0-2.539-.41,29.465,29.465,0,0,0-3.771.094c-.868.029-1.749.06-2.657.171-.273-.142-.061-.444-.041-.646A3.145,3.145,0,0,0,30,52.187c.142-.152.315-.071.484-.143A1.6,1.6,0,0,0,31.7,50.891a2.469,2.469,0,0,0-.283-1.759c-.052-.161-.273-.28-.181-.44.717-1.345.211-2.71-.03-4.023a27.706,27.706,0,0,1-.79-2.941c.032-.1-.1-.332.121-.352l.081.02a35.867,35.867,0,0,0,3.79,3.537,15.043,15.043,0,0,0,4.332,2.213c.13.109.11.2.061.351ZM28.577,49.883c0-.121.008-.169.1-.21h.5c.441.013,1.013.161,1.428-.269.239.009.26.291.323.512a3.617,3.617,0,0,1,.043.774,1.512,1.512,0,0,1-.436.69,1.3,1.3,0,0,1-1.063,0,1.682,1.682,0,0,1-.894-1.5Zm.851,2.55c-.065.6-.821,1.134-1.192,1.241a4.946,4.946,0,0,1-1.8-.056A3.648,3.648,0,0,1,25.433,51.2c0-.651.176-1.685.436-1.767a4.112,4.112,0,0,1,.955-.039,3.7,3.7,0,0,1,.762.079c.181.069.054.3.117.425a3.218,3.218,0,0,0,.31,1.037,2.414,2.414,0,0,0,1.352,1.1c.118.109.052.256.063.4Zm-4.314,1.045c-.206.211-.321.111-.53.132a1.351,1.351,0,0,1-1.114-1.093,6.733,6.733,0,0,1,0-2.93l.1-.076a3.691,3.691,0,0,1,1.221-.038c.173.1-.184,1.783-.184,1.783a6.63,6.63,0,0,0,.306,1.637c.032.065.375.41.206.584Zm7.034-20.031-.021.577a1.868,1.868,0,0,1-.789,1.423c-.295-.069-.191-.425-.262-.668a7.082,7.082,0,0,1,.863-1.423.122.122,0,0,1,.126-.032ZM36.435,28.8a1.083,1.083,0,0,1-.961.016c-.087-.116-.365-.212-.254-.384.246-.4.661-.727.917-1.118l.119-.061a8.406,8.406,0,0,1,2.108-1.621l.468-.2c.1-.1.34-.314.433-.095A2.736,2.736,0,0,1,38.16,27.59a1.483,1.483,0,0,1-1.095.306l-.215.391a.925.925,0,0,1-.415.508Zm-1.68,7.685c-.141.085-1.363-.38-1.219-.252-.291-.313.182-.419-.894-.823l-.262.025c-.032.033-.128.081-.224-.054-.01-.161.2-.138.271-.339a4.775,4.775,0,0,0,.135-2.44l.285-.739a11.835,11.835,0,0,1,.906-1.1,3.987,3.987,0,0,1,.935-.978.266.266,0,0,1,.325-.043.792.792,0,0,1,.311.531,2.026,2.026,0,0,1-1.03,1.912,1.874,1.874,0,0,0-.773,1.568l.038.039c.2-.172.459-.271.546-.484.337-.756,1.251-1.1,1.762-1.757a2.61,2.61,0,0,0,0-1.531c0,.011.669-.317.487-.2.318.131.28.362.433.651a2.07,2.07,0,0,1-.187,2.1l-1.275,1.589c-.019.81.2,1.85-.569,2.324Zm5.393-12.087.088-.11a7.478,7.478,0,0,1,1.2-.461l.525-.138c.139-.126.386-.229.528-.048a2.1,2.1,0,0,1-1.256,1.813,5.7,5.7,0,0,1-.835.206c-.07-.061-.3.069-.368-.1a4.547,4.547,0,0,0,.113-1.16Zm5.077-1.275c-.025.49-.678.894-1.226,1.048a4.236,4.236,0,0,1-.655.021c-.052-.039-.116-.083-.107-.135.035-.232.072-.369.09-.578l.135-.1c.481-.1,1.073-.2,1.558-.332.071.015.16.009.2.075Zm-15.583,9.8a48.905,48.905,0,0,1,4.972-7l2.577-2.926a39.247,39.247,0,0,1,6.12-5.527c.284-.163.407-.492.7-.26l.265.243c.179.2.023.774-.159.936-.144.12-.285.235-.427.351.439.436,1.073,1.263,1.6,1.8.228.236.159.48.567.67a.341.341,0,0,1,.142.512c-.364.463-.969.394-1.445.514A21.735,21.735,0,0,0,39.4,24.072a11.772,11.772,0,0,0-3.952,3.171,11.209,11.209,0,0,0-1.281,1.587A38.447,38.447,0,0,0,31.5,32.759a4.829,4.829,0,0,1-.8,1.033c-.2.189-.376-.206-.5-.342a.277.277,0,0,1-.033-.05.18.18,0,0,1-.128-.03c-.11-.141-.455-.2-.395-.455Zm16.394-9.462c-.055.058-.127.133-.222.108-.213-.15-.133-.34-.118-.521.043-.043.05-.067.118-.067a.2.2,0,0,1,.2.11.445.445,0,0,1,.024.37ZM22.293,52.514a.917.917,0,0,1-.9-.706A3.413,3.413,0,0,1,21.271,50c.043-.079.134-.132.193-.106l.577-.2a.846.846,0,0,1,.54-.061l.117.115c-.009.339-.093.587-.1.9a4.045,4.045,0,0,0,.127,1.76c-.083.2-.25.1-.429.106ZM20.57,50.331a1.369,1.369,0,0,0-.121.467c-.049.088-.3-.033-.381-.083-.314-.169-.291-.083-.384-.373a.47.47,0,0,1,.279-.594c.2-.113.607-.252.737,0,.039.171-.163.388-.132.583ZM49.451,33.674c-.728-1.679-1.546-3.123-2.143-4.81-.425-.607-.18-1.254-.231-1.9a22.59,22.59,0,0,0-1.1-2.77c-.11-.28.2-.363.314-.563a2,2,0,0,0-.173-1.525c-.089-.276.234-.467.173-.748-.011-.435-.394-.729-.7-.959a11,11,0,0,0-1.232-1.6v-.109a1.513,1.513,0,0,0,.5-1.062,1.723,1.723,0,0,0-.607-1.111c-.646-.363-1.3.2-1.817.5-.143.1-.213.2-.415.181-.132-.044-.265-.095-.4-.142a3.964,3.964,0,0,1-.5.467l.627.254a.06.06,0,0,1,.032.052.451.451,0,0,1-.006.048l-1.453,1.273s-2.541,2.51-2.541,2.51l-.727.739-2.256,2.6a53.842,53.842,0,0,0-3.969,5.254c-.544.752-1.087,1.586-1.6,2.373-.055.088-.158.08-.321.061a.768.768,0,0,0-.329.012h0l-.023.006a.028.028,0,0,0,.02-.006,2.377,2.377,0,0,0-1.436.658,3.639,3.639,0,0,0-.871,2.4,4.819,4.819,0,0,0,.421,1.905,2.946,2.946,0,0,1-.635.926l-.136.15-.173.169a3.988,3.988,0,0,0-.335.351l-.009.009-.006.016c-.011.039-.017.109.1.163l.026.013.029-.006a2.329,2.329,0,0,0,1.2-.918s.206-.234.235-.269c.047-.011.088.018.158.077a.583.583,0,0,0,.127.083v.027l-.008.212A16.867,16.867,0,0,1,23.627,41.4l-.224.128.26.029a2.626,2.626,0,0,0,1.5-.527l.577-.321a8.445,8.445,0,0,0,1.514-1.1s.433-.36.482-.4c.044.007.095.065.133.113l.047.05c.009.015.4.8.429.846a4.576,4.576,0,0,0-.13,1.113,11.277,11.277,0,0,0,.347,2.4,11.276,11.276,0,0,1,.345,2.368c0,.05,0,.1,0,.155a.919.919,0,0,1-.488.667,11.653,11.653,0,0,1-1.761.1,9.509,9.509,0,0,0-2.241.183,4.768,4.768,0,0,0-.666.156,5.621,5.621,0,0,1-.669.155l-.02,0-.024.017-.079.052a.36.36,0,0,0-.184.208v.028a.252.252,0,0,0,.073.173.191.191,0,0,0,.155.061,1.942,1.942,0,0,0,.611-.154,3.155,3.155,0,0,1,.433-.133,15.883,15.883,0,0,1,3.736-.1c.48-.008,1.275-.024,1.56-.709a2.207,2.207,0,0,0,.139-.785,4.982,4.982,0,0,0-.087-.807l-.087-.666c-.058-.408-.144-.814-.228-1.205a10.481,10.481,0,0,1-.3-2.141c0-.148.008-.295.021-.444.013-.017.029-.04.047-.044.043-.006.118.055.176.1a.657.657,0,0,0,.213.122.54.54,0,0,0,.277.1c.126.017.194.034.234.128a8.752,8.752,0,0,0,.491,1.937,13.01,13.01,0,0,1,.395,1.338,10.809,10.809,0,0,1,.35,2.339,3.968,3.968,0,0,1-.225,1.371c-.338.618-1.074.618-1.788.619h-.214l-1.748-.1a19.73,19.73,0,0,0-4.639.037l-.356.036a1.415,1.415,0,0,1-.578.008.353.353,0,0,1-.134-.268.291.291,0,0,1,.019-.1,4.164,4.164,0,0,0,.427-1.7,2.135,2.135,0,0,0-.28-1.089,4.482,4.482,0,0,0-1.419-1.714q-.921-.91-1.785-1.876a3.064,3.064,0,0,1-.509-.108l-.069-.024-.3.375c.394.374.758.748,1.2,1.152a9.136,9.136,0,0,1,1.706,1.465,2.609,2.609,0,0,1,.607,2.223c-.081.958-.959,1.373-1.557,2.012a1.29,1.29,0,0,0-.061,1.423c.213.563,1.122.463,1.234.929.249,1.025,2.029,1.619,2.377,1.644a1.361,1.361,0,0,1,.7.406,2.852,2.852,0,0,0,2.125.315c.485-.072,1.36.321,1.9.241a7.237,7.237,0,0,1,2.334-.243,79.429,79.429,0,0,1,8.425.323c.506-.059,1.111.334,1.588.093.121-.2.029-.375,0-.547a7.529,7.529,0,0,1-.759-6.585l.493.029a7.976,7.976,0,0,0,5.173-1.079,2.865,2.865,0,0,0,1.333-2.492,8.489,8.489,0,0,1-.128-1.765,1.161,1.161,0,0,1,.424-.77,1.285,1.285,0,0,0,.529-.566.589.589,0,0,0-.3-.751.879.879,0,0,0,.3-1.156,3.032,3.032,0,0,1-.385-1.121A.8.8,0,0,1,46.9,36.7c.706-.373,1.372-.465,2.11-.788a1.268,1.268,0,0,0,.748-1.212l-.3-1.029Zm-.212,1.761c-.748.7-1.808.708-2.667,1.273-.395.394-.295.84-.132,1.337.317.629.2.563-.247.711-1.037.347-1.026,1.479-2.272,1.289-.071.021-.362-.123-.191.085.135.159.191.063.456.095a1.284,1.284,0,0,0,.92-.376c.444-.371.392-.514.94-.775a1.364,1.364,0,0,1,.633-.063c.121.11.124.111.144.213-.071.306-.514.556-.684.664.234.169.67.458.6.7-.1.159-.095.184-.271.27a1.258,1.258,0,0,1-1.205-.244c-.07.024-.147-.136-.347.053.453.467,1.087.359,1.182.455s-.337.658-.358.78c-.3.807.069,1.552-.095,2.39a1.783,1.783,0,0,1-.87,1.382A6.254,6.254,0,0,1,41.8,46.805c-3.1.21-5.057-.852-7.292-2.521a16.628,16.628,0,0,1-3.785-3.494c-.009-.383.273-.675.032-1.091-.2.07-.183.333-.3.485a1.1,1.1,0,0,1-.879.4c-.919-.315-.97-1.4-1.545-2.013a3.936,3.936,0,0,1-.918-4.425,2.146,2.146,0,0,1,1.111-1.05,1.535,1.535,0,0,1,1.627.464,3.277,3.277,0,0,1,.827,1.717c.181.295-.039.627.262.87A2.069,2.069,0,0,0,32.417,36c.375.05.427.465.71.646l.5.3a1.649,1.649,0,0,0,1.679-.173c.849-.869.663-1.761.956-2.721A3.762,3.762,0,0,0,37.6,31.314a4.385,4.385,0,0,0-.638-1.869,4.981,4.981,0,0,1,.387-.961.98.98,0,0,1,.343-.079,3.181,3.181,0,0,0,2.072-1.872l.08-.077a3.479,3.479,0,0,0,2.908-1.517c.124-.466.646-.121.971-.231a2.7,2.7,0,0,0,1.506-.691c.119-.039.211.093.283.152.24.81.686,1.589.938,2.406a2.8,2.8,0,0,1,.315,1.828,13.02,13.02,0,0,0,1.058,2.829c.387,1.021.981,2.05,1.416,3.1.082.425.264.76,0,1.1" transform="translate(-3.691 -3.478)" fill="#fff"/>
      <path id="Pfad_6634" data-name="Pfad 6634" d="M47.342,30.256c.142.181.234.342.121.513-.262.02-.3-.311-.525-.425-.364-.181-.687.012-1.05.1-.921.394-1.688,1.182-2.577,1.594a.345.345,0,0,1-.283-.088c.152-.152.394-.183.586-.3.917-.606,1.809-1.553,2.959-1.727a.86.86,0,0,1,.767.335M46.459,33.6c-.142.211-.369.027-.569.052-.452-.052-1.221.054-1.723-.008-.075-.044-.132-.121-.086-.195.077-.123.286-.132.418-.228a5.992,5.992,0,0,1,1.751-.819.22.22,0,0,1,.228.158,2.958,2.958,0,0,1-.02,1.041Zm.812-1.794c-.071-.223-.06-.584-.333-.636-.061.14,0,.294-.061.425a.4.4,0,0,1-.384.18c-1.114.071-1.942,1.052-2.889,1.558a4.228,4.228,0,0,1-1.032.37.116.116,0,0,0,.028.153c1.053.111,2.092.213,3.133.325l1.163-.132c.032-.15-.151-.284-.121-.455a2.664,2.664,0,0,0,.04-1.434c.091-.241.435-.062.455-.354m.587,5.209c.038-.053.08-.113.13-.118.066.024.1.055.11.176a3.432,3.432,0,0,1-.11.618,3.212,3.212,0,0,0-.122.748,1.188,1.188,0,0,0,.042.325.54.54,0,0,0,.643.131s.459-.263.459-.263A4.805,4.805,0,0,1,50.471,38a.033.033,0,0,1,.025,0,.145.145,0,0,1,.016.073.559.559,0,0,1-.047.206c-.026.013-.666.3-.666.3a14.935,14.935,0,0,0-1.516.731.592.592,0,0,1-.406-.126l-.032-.018a1.2,1.2,0,0,1-.246-.748,3.1,3.1,0,0,1,.1-.67,4.209,4.209,0,0,0,.1-.659l.056-.068m-15.739-.207c.363.748-.022,1.453,0,2.232.061.221.494.252.363.514a.308.308,0,0,1-.354.01.619.619,0,0,1-.324-.462c-.051-.69.5-1.488.009-2.133a.913.913,0,0,0-.545-.294c-.433.08-.656.546-.807.889a2.428,2.428,0,0,0,.5,2.6c.465.271,1.03.566,1.062,1.153.069.1.21.2.323.139.142-.008.161-.411.363-.22l.061.142c-.05.159-.1.446-.362.454a.512.512,0,0,1-.384-.121c-.284-.291-.061-.735-.536-.929a2.172,2.172,0,0,1-1.385-1.848,2.684,2.684,0,0,1,.629-2.221,1.008,1.008,0,0,1,.909-.213.713.713,0,0,1,.475.313" transform="translate(-6.388 -6.348)" fill="#fff"/>
      <g id="Gruppe_800" data-name="Gruppe 800" transform="translate(3.329 3.328)">
        <path id="Pfad_6635" data-name="Pfad 6635" d="M19.746,44.93a5.533,5.533,0,0,1,2.7-.389,3.488,3.488,0,0,1-1.759,2.085,4.038,4.038,0,0,1-2.6.365,3.519,3.519,0,0,1,1.659-2.062Zm-.142-.31a3.968,3.968,0,0,0-1.9,2.452l-.036.152.149.05a4.2,4.2,0,0,0,3.021-.342,3.8,3.8,0,0,0,1.993-2.5l.035-.173-.173-.028a5.889,5.889,0,0,0-3.09.392M21.178,41.7a5.335,5.335,0,0,1,2.627-.365,3.471,3.471,0,0,1-1.775,2.013,4.3,4.3,0,0,1-2.6.386A3.755,3.755,0,0,1,21.178,41.7Zm-.139-.312a4.209,4.209,0,0,0-2,2.421l-.05.163.161.047a4.389,4.389,0,0,0,3.022-.366,3.75,3.75,0,0,0,2.014-2.426l.035-.173-.171-.032a5.693,5.693,0,0,0-3.017.365" transform="translate(-7.08 -12.02)" fill="#fff" fill-rule="evenodd"/>
        <path id="Pfad_6636" data-name="Pfad 6636" d="M23.878,36.111a5.132,5.132,0,0,1,2.552-.343,3.438,3.438,0,0,1-1.79,1.941,4.592,4.592,0,0,1-2.593.409A4.023,4.023,0,0,1,23.878,36.111Zm-.136-.312a4.483,4.483,0,0,0-2.094,2.387l-.064.173.177.048a4.649,4.649,0,0,0,3.022-.392,3.714,3.714,0,0,0,2.035-2.351l.039-.171-.173-.035a5.474,5.474,0,0,0-2.944.34m1.992-2.758a4.942,4.942,0,0,1,2.476-.325,3.422,3.422,0,0,1-1.8,1.871,4.859,4.859,0,0,1-2.589.427,4.34,4.34,0,0,1,1.917-1.973Zm-.134-.314a4.859,4.859,0,0,0-2.193,2.351l-.076.184.193.048a4.921,4.921,0,0,0,3.023-.413A3.681,3.681,0,0,0,28.6,32.621l.043-.169-.173-.039a5.213,5.213,0,0,0-2.872.315m2.7-2.757a4.727,4.727,0,0,1,2.4-.306,3.424,3.424,0,0,1-1.816,1.8,5.232,5.232,0,0,1-2.584.447,4.671,4.671,0,0,1,2-1.942Zm-.128-.317a5.168,5.168,0,0,0-2.29,2.319l-.1.2.21.046a5.29,5.29,0,0,0,3.025-.436,3.638,3.638,0,0,0,2.073-2.2l.046-.169-.17-.04a4.972,4.972,0,0,0-2.8.289" transform="translate(-7.911 -9.54)" fill="#fff" fill-rule="evenodd"/>
        <path id="Pfad_6637" data-name="Pfad 6637" d="M33,26.211a4.545,4.545,0,0,1,2.324-.287A3.415,3.415,0,0,1,33.5,27.657a5.593,5.593,0,0,1-2.573.465A5.023,5.023,0,0,1,33,26.211Zm-.126-.315a5.586,5.586,0,0,0-2.389,2.286l-.109.206.228.045a5.646,5.646,0,0,0,3.022-.462,3.629,3.629,0,0,0,2.1-2.127l.048-.169L35.6,25.63a4.733,4.733,0,0,0-2.727.265" transform="translate(-9.778 -8.746)" fill="#fff" fill-rule="evenodd"/>
        <path id="Pfad_6638" data-name="Pfad 6638" d="M36.815,22.658a4.342,4.342,0,0,1,2.248-.265,3.476,3.476,0,0,1-1.847,1.665,6.145,6.145,0,0,1-2.563.481,5.406,5.406,0,0,1,2.162-1.881Zm-.124-.317A5.994,5.994,0,0,0,34.206,24.6l-.131.217.249.039a6.026,6.026,0,0,0,3.023-.484,3.6,3.6,0,0,0,2.114-2.052l.052-.167-.167-.046a4.437,4.437,0,0,0-2.655.236" transform="translate(-10.563 -7.995)" fill="#fff" fill-rule="evenodd"/>
        <path id="Pfad_6639" data-name="Pfad 6639" d="M40.78,19.378a4.176,4.176,0,0,1,2.169-.246,3.492,3.492,0,0,1-1.858,1.6,6.669,6.669,0,0,1-2.552.5A5.834,5.834,0,0,1,40.78,19.378Zm-.121-.317a6.488,6.488,0,0,0-2.584,2.223l-.153.228.274.035a6.474,6.474,0,0,0,3.023-.506,3.6,3.6,0,0,0,2.135-1.979l.054-.161-.164-.052a4.218,4.218,0,0,0-2.584.212" transform="translate(-11.379 -7.303)" fill="#fff" fill-rule="evenodd"/>
        <path id="Pfad_6640" data-name="Pfad 6640" d="M39.267,16.442a3.979,3.979,0,0,1,2.1-.228,3.576,3.576,0,0,1-1.875,1.525,7.233,7.233,0,0,1-2.536.515,6.282,6.282,0,0,1,2.313-1.813Zm-.118-.32a7.017,7.017,0,0,0-2.68,2.194l-.173.24.295.03a7.066,7.066,0,0,0,3.023-.53,3.605,3.605,0,0,0,2.155-1.9l.058-.161-.161-.055a3.909,3.909,0,0,0-2.516.182m-23.062,23c0-.051,0-.1,0-.155a5.513,5.513,0,0,1,.962-2.571,3.528,3.528,0,0,1,1,2.414c0,.047,0,.1,0,.146a4.041,4.041,0,0,1-.932,2.473,3.654,3.654,0,0,1-1.027-2.306Zm.808-3.092a5.944,5.944,0,0,0-1.145,2.913A3.969,3.969,0,0,0,17,41.8l.113.108.116-.108a4.2,4.2,0,0,0,1.152-2.829A3.822,3.822,0,0,0,17.138,36L17,35.889l-.107.139" transform="translate(-6.671 -6.682)" fill="#fff" fill-rule="evenodd"/>
        <path id="Pfad_6641" data-name="Pfad 6641" d="M18.443,40.127a3.3,3.3,0,0,1,.115-.814,5.649,5.649,0,0,1,1-1.938,3.359,3.359,0,0,1,.776,2.123,3.781,3.781,0,0,1-.024.394,4.224,4.224,0,0,1-1.067,2.377,3.764,3.764,0,0,1-.8-2.143ZM19.423,37a5.894,5.894,0,0,0-1.194,2.221,3.881,3.881,0,0,0-.1.558,4.021,4.021,0,0,0,.973,2.858l.112.124.124-.109a4.386,4.386,0,0,0,1.31-2.721,3.625,3.625,0,0,0-.976-2.941l-.126-.12L19.423,37" transform="translate(-7.172 -11.152)" fill="#fff" fill-rule="evenodd"/>
        <path id="Pfad_6642" data-name="Pfad 6642" d="M21.093,36.034a2.715,2.715,0,0,1,.045-.491,3.324,3.324,0,0,1,.123-.487,5.252,5.252,0,0,1,1.1-1.835,3.214,3.214,0,0,1,.512,2.477,4.461,4.461,0,0,1-1.2,2.283,4.029,4.029,0,0,1-.577-1.948Zm1.168-3.2a5.532,5.532,0,0,0-1.323,2.109,3.963,3.963,0,0,0-.135.536,4.174,4.174,0,0,0,.7,2.863l.1.142.14-.109a4.609,4.609,0,0,0,1.465-2.611,3.466,3.466,0,0,0-.7-2.918l-.116-.127-.124.116" transform="translate(-7.735 -10.271)" fill="#fff" fill-rule="evenodd"/>
        <path id="Pfad_6643" data-name="Pfad 6643" d="M24.012,32.262a3.077,3.077,0,0,1,.083-.72,3.237,3.237,0,0,1,.147-.473,4.99,4.99,0,0,1,1.2-1.727,3.041,3.041,0,0,1,.406,1.528,3.241,3.241,0,0,1-.129.906,4.776,4.776,0,0,1-1.333,2.187,4.356,4.356,0,0,1-.378-1.7Zm1.369-3.312a5.1,5.1,0,0,0-1.453,1.991,3.481,3.481,0,0,0-.165.52,4.388,4.388,0,0,0,.417,2.856l.092.169.156-.113a4.841,4.841,0,0,0,1.621-2.5,3.338,3.338,0,0,0-.433-2.891l-.1-.133-.134.1" transform="translate(-8.354 -9.448)" fill="#fff" fill-rule="evenodd"/>
        <path id="Pfad_6644" data-name="Pfad 6644" d="M27.158,28.842a3.523,3.523,0,0,1,.32-1.489,4.817,4.817,0,0,1,1.31-1.631,2.826,2.826,0,0,1,.265,1.215,3.288,3.288,0,0,1-.225,1.184,5.1,5.1,0,0,1-1.461,2.091A4.838,4.838,0,0,1,27.158,28.842Zm1.6-3.513A4.8,4.8,0,0,0,27.174,27.2a3.493,3.493,0,0,0-.192.5,4.749,4.749,0,0,0,.139,2.856l.079.194.174-.115a5.221,5.221,0,0,0,1.774-2.393,3.287,3.287,0,0,0-.158-2.863l-.092-.142-.142.091" transform="translate(-9.022 -8.682)" fill="#fff" fill-rule="evenodd"/>
        <path id="Pfad_6645" data-name="Pfad 6645" d="M30.5,25.812a4.175,4.175,0,0,1,.25-1.482,3.177,3.177,0,0,1,.2-.431,4.458,4.458,0,0,1,1.41-1.529,2.642,2.642,0,0,1,.151.91,3.348,3.348,0,0,1-.343,1.449,5.555,5.555,0,0,1-1.591,1.994,5.4,5.4,0,0,1-.076-.911Zm1.867-3.842a4.491,4.491,0,0,0-1.714,1.761,3.44,3.44,0,0,0-.22.477,5.238,5.238,0,0,0-.138,2.851l.058.221.2-.119a5.592,5.592,0,0,0,1.926-2.283,3.29,3.29,0,0,0,.118-2.833l-.078-.149-.15.076" transform="translate(-9.731 -7.973)" fill="#fff" fill-rule="evenodd"/>
        <path id="Pfad_6646" data-name="Pfad 6646" d="M33.99,23.231a5.228,5.228,0,0,1,.408-2.116,2.977,2.977,0,0,1,.225-.411,4.236,4.236,0,0,1,1.512-1.431,2.634,2.634,0,0,1,.066.6,3.418,3.418,0,0,1-.488,1.723A6.032,6.032,0,0,1,34,23.5c0-.079,0-.165,0-.265Zm2.193-4.358a4.3,4.3,0,0,0-1.846,1.642,4.062,4.062,0,0,0-.249.457,5.9,5.9,0,0,0-.411,2.844l.031.248.221-.117a6.065,6.065,0,0,0,2.079-2.175,3.342,3.342,0,0,0,.395-2.8l-.063-.156-.156.059" transform="translate(-10.472 -7.318)" fill="#fff" fill-rule="evenodd"/>
        <path id="Pfad_6647" data-name="Pfad 6647" d="M38.235,18.156a3.311,3.311,0,0,1,.25-.394A4.1,4.1,0,0,1,40.1,16.429a2.425,2.425,0,0,1,.018.3,3.513,3.513,0,0,1-.67,2,6.656,6.656,0,0,1-1.843,1.8,6.156,6.156,0,0,1,.629-2.369Zm1.953-2.123a4.091,4.091,0,0,0-1.976,1.527,3.78,3.78,0,0,0-.277.432,6.706,6.706,0,0,0-.684,2.84V21.1l.245-.121a6.525,6.525,0,0,0,2.232-2.065,3.458,3.458,0,0,0,.67-2.765l-.049-.164-.161.044" transform="translate(-11.237 -6.718)" fill="#fff" fill-rule="evenodd"/>
        <path id="Pfad_6648" data-name="Pfad 6648" d="M42.5,15.071a3.981,3.981,0,0,1,1.72-1.236.056.056,0,0,1,0,.024,3.615,3.615,0,0,1-.886,2.242,7.192,7.192,0,0,1-1.962,1.706A6.255,6.255,0,0,1,42.5,15.071Zm1.846-1.626a3.956,3.956,0,0,0-2.106,1.405A7.063,7.063,0,0,0,40.984,18.1l-.034.3.271-.121a7.123,7.123,0,0,0,2.384-1.957,3.634,3.634,0,0,0,.941-2.729l-.028-.171-.169.029" transform="translate(-12.022 -6.172)" fill="#fff" fill-rule="evenodd"/>
        <path id="Pfad_6649" data-name="Pfad 6649" d="M5,28.379A23.384,23.384,0,0,1,39.321,7.706c-.491.559-2.428,2.77-2.725,3.11a19.185,19.185,0,0,0-8.207-1.824A19.411,19.411,0,0,0,9,28.379a18.866,18.866,0,0,0,4.667,12.612,6.354,6.354,0,0,0-.487,2.471,6.963,6.963,0,0,0,.91,3.383A23.867,23.867,0,0,1,5,28.379Zm-.77,0A24.743,24.743,0,0,0,15.857,49.052l.3.187.213-.276a.37.37,0,0,0,.084-.225.584.584,0,0,0-.236-.392l-.416-.4a6.725,6.725,0,0,1-1.873-4.495,5.086,5.086,0,0,1,.523-2.326l.133-.237L14.4,40.68a18.118,18.118,0,0,1-4.633-12.3,18.631,18.631,0,0,1,26.76-16.753l.264.129,3.744-4.269-.415-.231A24.168,24.168,0,0,0,4.226,28.38" transform="translate(-4.226 -4.22)" fill="#fff" fill-rule="evenodd"/>
        <path id="Pfad_6650" data-name="Pfad 6650" d="M38.149,12.223a19.2,19.2,0,0,0-8.476-1.945,19.411,19.411,0,0,0-19.39,19.387,18.87,18.87,0,0,0,4.831,12.812l.332.371,1.474-2.228-.079-.091q-.161-.019-.321-.052c.022-.06.051-.141.087-.228q-.175-.206-.343-.417a3.442,3.442,0,0,1-.309.419,3.65,3.65,0,0,1-1.028-2.306v-.106a16.307,16.307,0,0,1-2.077-8.173A16.843,16.843,0,0,1,29.674,12.842a16.662,16.662,0,0,1,6.538,1.319,4.443,4.443,0,0,1,.642-.55,17.43,17.43,0,0,0-7.18-1.536A17.612,17.612,0,0,0,12.081,29.664a16.786,16.786,0,0,0,3.885,11.007l-.6.9a18.114,18.114,0,0,1-4.313-11.908,18.641,18.641,0,0,1,18.621-18.62,18.416,18.416,0,0,1,7.8,1.713c-.1.221-.2.439-.3.658a3.056,3.056,0,0,1,.544-.248.057.057,0,0,1,0,.024,3.31,3.31,0,0,1-.39,1.485l.088.044,1.076-2.335-.339-.164" transform="translate(-5.512 -5.506)" fill="#fff" fill-rule="evenodd"/>
      </g>
      <g id="Gruppe_801" data-name="Gruppe 801" transform="translate(4.707 4.681)">
        <path id="Pfad_6651" data-name="Pfad 6651" d="M37.062,7.5,35.207,9.846c.172.06.34.118.51.181L37.555,7.7c-.163-.068-.327-.135-.493-.2M33.432,6.42,32.353,9.1c.171.031.34.065.51.1L33.94,6.532q-.253-.06-.507-.112m-4.315-.482-.265,2.837.514.007.265-2.829c-.171-.008-.34-.012-.513-.016m-4.2.321.538,2.792c.169-.028.336-.055.506-.08l-.54-2.792c-.169.024-.336.051-.5.08m-4.082,1.1L22.11,9.913c.162-.058.324-.111.488-.163L21.317,7.18q-.242.083-.485.175M16.964,9.227l1.9,2.174c.15-.086.3-.17.456-.253L17.41,8.961c-.15.087-.3.177-.447.265m-3.517,2.624,2.4,1.668c.134-.113.271-.225.41-.336L13.84,11.5c-.132.113-.263.231-.393.349m-2.991,3.3,2.762,1.073c.112-.139.228-.276.343-.411l-2.784-1.084q-.162.21-.321.422m-2.31,3.836,2.971.414c.087-.161.173-.321.263-.479l-3-.419q-.121.242-.236.484M6.631,23.192,9.662,22.9c.053-.176.11-.352.17-.528l-3.063.291q-.071.265-.139.528M5.976,27.6l2.931-1.019c.02-.189.043-.377.069-.566L6.011,27.047c-.013.184-.025.368-.034.553M6.2,32.054,8.85,30.313q-.022-.292-.035-.585l-2.69,1.767c.023.187.05.372.077.559m1.131,4.352L9.481,34.04c-.055-.2-.1-.4-.15-.595L7.139,35.862c.06.184.126.364.193.544m2.021,4.165,1.52-2.891c-.095-.19-.189-.377-.279-.569L9.046,40.057c.1.173.2.344.307.513m2.592,3.471.812-3.351q-.2-.264-.4-.536l-.829,3.416c.135.16.273.315.413.469M36.681,13.966l.21.139c.062-.028.124-.057.186-.08l.222-.076a4.037,4.037,0,0,1-.444-.342,3.913,3.913,0,0,1-.173.36M73.619,25.756H67.712v-.677H70.3V8.71H67.712V8.033h6.806l3.549,11.805h.286L82.007,8.033h6.721V8.71H86.112V25.078h2.615v.677H80.081v-.677H82.7V8.956h-.183l-5.2,16.8h-.9L71.3,8.982h-.26v16.1H73.62v.677M92.747,21.51H96.46L94.7,16.478H94.49Zm3.122,4.246v-.462h1.9L96.634,22H92.557l-1.118,3.293h1.916v.462H89.4v-.462h1.489l4.277-12.215h.618l4.388,12.215h1.506v.462h-5.8m12.862,0v-.462h1.9l-2.978-4.752-3.234,4.752H106.6v.462h-4.5v-.462h1.725l3.542-5.207-3.887-6.239h-1.324v-.492h5.8v.492h-1.788l2.569,4.181,2.859-4.181h-2.006v-.492h4.467v.492h-1.861l-3.143,4.625,4.3,6.821h1.334v.462h-5.947m19.988-8.739h1.544a4.951,4.951,0,0,0,3.472-.955,4.6,4.6,0,0,0,.985-3.361,4.694,4.694,0,0,0-.79-3.113,4.026,4.026,0,0,0-3.03-.878h-2.18v8.308Zm2.738,8.739h-8.739v-.677H125.3V8.71h-2.584V8.033h8.712a9.412,9.412,0,0,1,5.3,1.215,4.138,4.138,0,0,1,1.771,3.659,3.973,3.973,0,0,1-1.809,3.594,10.576,10.576,0,0,1-5.6,1.163h-2.375v7.415h2.738v.677m18.806,0H140v-.462h1.816V13.848H140v-.492h6.031v.492h-1.816V25.293h1.925a3.633,3.633,0,0,0,2.672-.844,5.07,5.07,0,0,0,1.091-2.971h.466l-.109,4.277m3.958-4.246h3.715l-1.762-5.032h-.209Zm3.124,4.246v-.462h1.9L158.108,22h-4.077l-1.117,3.293h1.916v.462h-3.96v-.462h1.49l4.276-12.215h.618l4.386,12.215h1.508v.462h-5.8m16.293-4.125h.182V13.848h-1.785v-.492h4.092v.492h-1.784V25.971h-.69l-7.608-11.823h-.164V25.293H167.7v.462h-4.154v-.462h1.816V13.848h-1.816v-.492h4.766l5.33,8.274m13.844,4.219h-.343l-.743-.811a5.813,5.813,0,0,1-1.581.78,5.961,5.961,0,0,1-1.756.245,5.008,5.008,0,0,1-3.965-1.845,6.884,6.884,0,0,1-1.581-4.638,6.854,6.854,0,0,1,1.591-4.673,5.165,5.165,0,0,1,4.082-1.827,5.555,5.555,0,0,1,1.669.231,3.986,3.986,0,0,1,1.315.7l.685-.707h.351v3.556h-.461a4.58,4.58,0,0,0-1.286-2.473,3.39,3.39,0,0,0-2.352-.819,2.586,2.586,0,0,0-2.3,1.038,6.268,6.268,0,0,0-.706,3.413v3.085a6.4,6.4,0,0,0,.7,3.444,2.548,2.548,0,0,0,2.288,1.05,3.627,3.627,0,0,0,2.562-.918A4.793,4.793,0,0,0,186.99,22h.492v3.847m6.164-6.577,5-5.423h-1.93v-.492h4.586v.492h-1.858l-3.951,4.29,5.7,7.156h1.1v.462h-5.773v-.462h1.912l-4.787-6.023Zm1.724,6.484h-6.061v-.462h1.816V13.849h-1.816v-.493h6.061v.492h-1.815V25.294h1.815v.462" transform="translate(-5.976 -5.938)" fill="#fff"/>
      </g>
    </g>
    <path id="Pfad_6652" data-name="Pfad 6652" d="M91.829,49.039a2.615,2.615,0,0,0-2.112-.979c-2.65,0-2.65,3.206-2.65,3.86,0,1.709.441,3.686,2.65,3.686,2.841,0,2.841-3.13,2.841-3.879A4.125,4.125,0,0,0,91.829,49.039Zm.672-6.2h1.8V55.145c0,.211.039,1.037.077,1.536h-1.8l-.039-1.536a2.755,2.755,0,0,1-.863,1.018,4.379,4.379,0,0,1-2.38.71c-1.287,0-4.147-.671-4.147-4.9,0-3.668,2.093-5.261,4.358-5.261A3.107,3.107,0,0,1,92.5,48.348V42.837" transform="translate(-18.076 -9.095)" fill="#fff"/>
    <path id="Pfad_6653" data-name="Pfad 6653" d="M101.962,47.046h1.8v9.639h-1.8v-9.64Zm-.191-4.185h2.169v1.977h-2.169V42.861" transform="translate(-21.605 -9.1)" fill="#fff"/>
    <path id="Pfad_6654" data-name="Pfad 6654" d="M115.61,55.3c.384-.5.654-1.018.654-2.765a3.193,3.193,0,0,0-.75-2.4,2.843,2.843,0,0,0-2.073-.846c-2.284,0-2.592,2.3-2.592,3.534,0,1.479.441,3.437,2.649,3.437a2.427,2.427,0,0,0,2.112-.961Zm-4.2,3.226c.076,1.075.537,1.881,2.246,1.881,2.515,0,2.554-1.824,2.554-4.435a3.337,3.337,0,0,1-3.167,1.632,3.713,3.713,0,0,1-2.959-1.19,5.408,5.408,0,0,1-1.094-3.553c0-3.264,1.92-4.857,4.282-4.857a3.365,3.365,0,0,1,3.033,1.459l.02-1.325h1.746l-.039,1.748-.018,6.028c0,2.324-.077,3.264-.461,3.994-.807,1.536-2.688,1.728-4.013,1.728-3.86,0-3.975-1.8-4.052-3.111h1.92" transform="translate(-23.137 -10.192)" fill="#fff"/>
    <path id="Pfad_6655" data-name="Pfad 6655" d="M125.823,47.046h1.8v9.639h-1.8v-9.64Zm-.193-4.185h2.17v1.977h-2.17V42.861" transform="translate(-26.671 -9.1)" fill="#fff"/>
    <path id="Pfad_6656" data-name="Pfad 6656" d="M131.85,47.428h1.709V45.411l1.786-.575v2.592h2.15v1.325h-2.15v5.779c0,.48,0,1.286,1.286,1.286a4.025,4.025,0,0,0,.863-.095v1.4a8.869,8.869,0,0,1-1.5.116c-1.653,0-2.439-.481-2.439-2.055V48.752H131.85V47.428" transform="translate(-27.991 -9.52)" fill="#fff"/>
    <path id="Pfad_6657" data-name="Pfad 6657" d="M147.385,52.993c-.729,0-3.475,0-3.475,1.959,0,.614.385,1.67,2,1.67a2.31,2.31,0,0,0,2.054-1.037,4.53,4.53,0,0,0,.462-2.534,8,8,0,0,0-1.038-.058Zm1.249,4.743a5.207,5.207,0,0,1-.173-1.44,3.117,3.117,0,0,1-2.975,1.747c-2.21,0-3.4-1.248-3.4-2.842a3.176,3.176,0,0,1,1.69-2.822,7.521,7.521,0,0,1,3.342-.634c.461,0,.748.019,1.305.058,0-1.19,0-1.709-.347-2.131a2.2,2.2,0,0,0-1.67-.634c-1.824,0-1.92,1.248-1.939,1.632h-1.805a3.075,3.075,0,0,1,.673-1.824,4.347,4.347,0,0,1,3.111-1.037c1.4,0,2.9.441,3.418,1.421a2.845,2.845,0,0,1,.327,1.479l-.077,4.608a22.263,22.263,0,0,0,.154,2.418h-1.632" transform="translate(-30.164 -10.151)" fill="#fff"/>
    <path id="Pfad_6658" data-name="Pfad 6658" d="M157.637,56.68h1.805V42.837h-1.805Z" transform="translate(-33.466 -9.095)" fill="#fff"/>
    <g id="Gruppe_803" data-name="Gruppe 803" transform="translate(136.726 33.703)">
      <path id="Pfad_6659" data-name="Pfad 6659" d="M173.575,56.67h2.841V42.788h-2.841Zm6.2-9.715h2.84V56.67h-2.84Zm-.1-4.147h3.033v2.477h-3.033V42.808m11.025,5.932c-2.093,0-2.093,2.381-2.093,2.995,0,2.209.941,3.264,2.228,3.264,1.957,0,1.957-2.438,1.957-2.938,0-.767-.037-3.321-2.092-3.321Zm-4.818-5.914h2.841v5.319a3.268,3.268,0,0,1,2.746-1.306c2.362,0,4.224,1.862,4.224,5.126,0,3.629-2.113,4.9-4.053,4.9a3.209,3.209,0,0,1-2.918-1.554c-.02.307-.039.767-.1,1.363h-2.745V42.827m12.687,6.528c0-.461-.077-1.862-.134-2.419h2.669l.057,1.862c.364-.826,1-2,3.3-1.881V49.47c-2.88-.268-3.053,1.21-3.053,2.419v4.781h-2.841V49.355m10.663,4.321a1.337,1.337,0,0,0,1.382,1.382,1.611,1.611,0,0,0,1.21-.557,3.563,3.563,0,0,0,.537-2.4C210.544,51.947,209.238,52.523,209.238,53.676Zm3.494,2.994a7.748,7.748,0,0,1-.1-1.325,3.747,3.747,0,0,1-5.318.788A3,3,0,0,1,206.474,54a3.224,3.224,0,0,1,2.054-3.015,10.126,10.126,0,0,1,3.84-.537,3.8,3.8,0,0,0-.134-1.287,1.315,1.315,0,0,0-1.268-.807,1.292,1.292,0,0,0-1.074.538,1.455,1.455,0,0,0-.212.864H206.9a2.715,2.715,0,0,1,1.094-2.284,5.07,5.07,0,0,1,2.938-.788,4.656,4.656,0,0,1,3.455,1.248,3.833,3.833,0,0,1,.673,2.381l.019,3.9a11.676,11.676,0,0,0,.232,2.458h-2.573m5.722-7.315c0-.461-.077-1.862-.135-2.419h2.67l.057,1.862c.365-.826,1-2,3.3-1.881V49.47c-2.879-.268-3.052,1.21-3.052,2.419v4.781h-2.841V49.355m10.417-2.38L231,53.694l2.169-6.719H236L232.329,56.5l-1.172,3.859H228.3l1.229-3.649L225.8,46.975h3.071" transform="translate(-173.575 -42.788)" fill="#fff"/>
    </g>
    <path id="Pfad_6660" data-name="Pfad 6660" d="M84.455,37.254H219.861" transform="translate(-17.929 -7.91)" fill="none" stroke="#9c9a9b" stroke-linejoin="round" stroke-miterlimit="8" stroke-width="0.563"/>
  </g>
</svg>
